<svg width="142" height="33" viewBox="0 0 142 33" fill="none" xmlns="http://www.w3.org/2000/svg">
<g clip-path="url(#clip0_287_383)">
<path d="M23.1914 17.5263C23.1566 13.3748 26.5891 11.357 26.7399 11.2642C24.7917 8.43466 21.7766 8.04038 20.7213 8.0056C18.1933 7.73888 15.7348 9.52473 14.4476 9.52473C13.1372 9.52473 11.1426 8.04038 9.00886 8.07517C6.2605 8.12156 3.67448 9.71028 2.27131 12.1919C-0.639408 17.2364 1.52913 24.6581 4.32388 28.7401C5.72706 30.7347 7.35056 32.9728 9.49591 32.8916C11.5833 32.8105 12.3718 31.558 14.8883 31.558C17.3931 31.558 18.1237 32.8916 20.3038 32.8452C22.5535 32.8105 23.9567 30.8391 25.3135 28.8213C26.9254 26.5368 27.5748 24.2755 27.598 24.1595C27.54 24.1363 23.2377 22.4896 23.1914 17.5263Z" fill="black"/>
<path d="M19.0745 5.32681C20.1994 3.92364 20.9648 2.01022 20.756 0.0620117C19.1325 0.131591 17.0915 1.18687 15.9203 2.56685C14.8882 3.78448 13.9605 5.76748 14.1924 7.63451C16.0247 7.77367 17.9033 6.70679 19.0745 5.32681Z" fill="black"/>
<path d="M50.3867 29.2167H48.0903L46.8327 25.2618H42.4586L41.2648 29.2167H39.0322L43.3608 15.7572H46.0399L50.3867 29.2167ZM46.4591 23.6033L45.32 20.0949C45.2015 19.7304 44.9737 18.892 44.6457 17.5616H44.6001C44.4634 18.1357 44.2538 18.9831 43.9622 20.0949L42.8413 23.6033H46.4591Z" fill="black"/>
<path d="M61.5132 24.2503C61.5132 25.8997 61.0667 27.2028 60.1645 28.1597C59.3626 29.0163 58.3602 29.4354 57.1756 29.4354C55.8907 29.4354 54.9703 28.9798 54.4053 28.0594V33.1534H52.2456V22.7011C52.2456 21.6623 52.2183 20.6052 52.1636 19.5117H54.059L54.1775 21.0517H54.2139C54.9338 19.8944 56.0274 19.3112 57.4854 19.3112C58.6336 19.3112 59.5813 19.7669 60.3468 20.669C61.1305 21.5803 61.5132 22.7649 61.5132 24.2503ZM59.3171 24.3232C59.3171 23.3755 59.1075 22.6009 58.6792 21.9904C58.2144 21.3525 57.5856 21.0335 56.8019 21.0335C56.2734 21.0335 55.7904 21.2158 55.353 21.5621C54.9247 21.9175 54.6331 22.3731 54.5055 22.9472C54.4418 23.2115 54.4053 23.4302 54.4053 23.6033V25.2254C54.4053 25.927 54.624 26.5285 55.0523 27.0115C55.4806 27.4944 56.0456 27.7405 56.7382 27.7405C57.5492 27.7405 58.178 27.4215 58.6336 26.8019C59.0892 26.1731 59.3171 25.3529 59.3171 24.3232Z" fill="black"/>
<path d="M72.6673 24.2503C72.6673 25.8997 72.2207 27.2028 71.3186 28.1597C70.5167 29.0163 69.5143 29.4354 68.3296 29.4354C67.0447 29.4354 66.1243 28.9798 65.5594 28.0594V33.1534H63.3996V22.7011C63.3996 21.6623 63.3723 20.6052 63.3176 19.5117H65.2131L65.3315 21.0517H65.368C66.0879 19.8944 67.1814 19.3112 68.6395 19.3112C69.7877 19.3112 70.7354 19.7669 71.5008 20.669C72.2845 21.5803 72.6673 22.7649 72.6673 24.2503ZM70.4711 24.3232C70.4711 23.3755 70.2615 22.6009 69.8332 21.9904C69.3685 21.3525 68.7397 21.0335 67.956 21.0335C67.4275 21.0335 66.9445 21.2158 66.5071 21.5621C66.0788 21.9175 65.7963 22.3731 65.6596 22.9472C65.5958 23.2115 65.5594 23.4302 65.5594 23.6033V25.2254C65.5594 25.927 65.7781 26.5285 66.2064 27.0115C66.6347 27.4944 67.1996 27.7405 67.8922 27.7405C68.7032 27.7405 69.3411 27.4215 69.7877 26.8019C70.2524 26.1731 70.4711 25.3529 70.4711 24.3232Z" fill="black"/>
<path d="M85.1516 25.4441C85.1516 26.5923 84.7506 27.5218 83.9578 28.2417C83.083 29.0254 81.8619 29.4172 80.2945 29.4172C78.8456 29.4172 77.6883 29.1347 76.8135 28.5788L77.3147 26.7836C78.2624 27.3395 79.3012 27.622 80.4312 27.622C81.2423 27.622 81.8801 27.4397 82.3267 27.0752C82.7823 26.7107 83.0101 26.2186 83.0101 25.6081C83.0101 25.0613 82.8188 24.6057 82.4542 24.2321C82.0806 23.8585 81.461 23.5122 80.5953 23.1932C78.2168 22.3093 77.0413 21.0244 77.0413 19.3385C77.0413 18.2359 77.4605 17.3338 78.2897 16.623C79.119 15.9213 80.2216 15.5659 81.5977 15.5659C82.8188 15.5659 83.8394 15.7755 84.6504 16.2038L84.1036 17.9534C83.3382 17.5433 82.4816 17.3338 81.5156 17.3338C80.7593 17.3338 80.1578 17.5251 79.7295 17.8896C79.3741 18.2268 79.1919 18.6278 79.1919 19.1107C79.1919 19.6393 79.4015 20.0858 79.8116 20.423C80.167 20.7419 80.8231 21.0882 81.7708 21.4618C82.9281 21.9266 83.7756 22.4733 84.3224 23.1021C84.8782 23.7309 85.1516 24.5146 85.1516 25.4441Z" fill="black"/>
<path d="M92.2962 21.1337H89.9177V25.845C89.9177 27.0388 90.3369 27.6402 91.1753 27.6402C91.558 27.6402 91.877 27.6038 92.1321 27.54L92.1959 29.1803C91.7676 29.3352 91.2117 29.4172 90.5192 29.4172C89.6626 29.4172 89.0065 29.1529 88.5235 28.6335C88.0405 28.1141 87.8036 27.2393 87.8036 26.0182V21.1246H86.3911V19.5117H87.8036V17.7347L89.9177 17.0968V19.5117H92.2962V21.1337Z" fill="black"/>
<path d="M102.994 24.2868C102.994 25.7812 102.566 27.0023 101.719 27.9592C100.825 28.9434 99.6408 29.4354 98.1646 29.4354C96.743 29.4354 95.6039 28.9616 94.7564 28.023C93.9089 27.0844 93.4897 25.8906 93.4897 24.4508C93.4897 22.9472 93.9272 21.717 94.7929 20.7601C95.6677 19.8033 96.8432 19.3203 98.3195 19.3203C99.7411 19.3203 100.889 19.7942 101.755 20.7419C102.584 21.6532 102.994 22.8378 102.994 24.2868ZM100.762 24.3323C100.762 23.4393 100.57 22.6829 100.188 22.045C99.732 21.2704 99.085 20.8877 98.2466 20.8877C97.3809 20.8877 96.7156 21.2704 96.2691 22.045C95.8773 22.6829 95.695 23.4575 95.695 24.3779C95.695 25.2709 95.8864 26.0364 96.2691 26.6652C96.7339 27.4398 97.39 27.8225 98.2284 27.8225C99.0485 27.8225 99.6955 27.4306 100.169 26.6469C100.561 25.9908 100.762 25.2254 100.762 24.3323Z" fill="black"/>
<path d="M110.011 21.4071C109.802 21.3707 109.574 21.3525 109.328 21.3525C108.571 21.3525 107.979 21.635 107.569 22.2091C107.214 22.7103 107.031 23.3573 107.031 24.1227V29.2167H104.872V22.5645C104.872 21.4436 104.853 20.423 104.808 19.5117H106.685L106.767 21.3707H106.831C107.059 20.7328 107.414 20.2134 107.906 19.8306C108.389 19.4844 108.909 19.3112 109.464 19.3112C109.665 19.3112 109.847 19.3294 110.002 19.3477L110.011 21.4071Z" fill="black"/>
<path d="M119.652 23.904C119.652 24.2868 119.625 24.6148 119.57 24.8791H113.1C113.128 25.8359 113.438 26.574 114.039 27.0752C114.586 27.5218 115.287 27.7496 116.153 27.7496C117.11 27.7496 117.985 27.5947 118.769 27.2939L119.106 28.7884C118.185 29.1894 117.101 29.3899 115.852 29.3899C114.349 29.3899 113.164 28.9433 112.308 28.0594C111.451 27.1755 111.023 25.9817 111.023 24.4963C111.023 23.0383 111.424 21.8172 112.226 20.8421C113.064 19.8033 114.194 19.2839 115.616 19.2839C117.01 19.2839 118.076 19.8033 118.787 20.8421C119.361 21.6805 119.652 22.692 119.652 23.904ZM117.593 23.3481C117.611 22.7103 117.465 22.1544 117.174 21.6896C116.8 21.0882 116.226 20.7875 115.461 20.7875C114.759 20.7875 114.185 21.0791 113.747 21.6623C113.392 22.127 113.173 22.692 113.11 23.339L117.593 23.3481Z" fill="black"/>
</g>
<defs>
<clipPath id="clip0_287_383">
<rect width="140.775" height="32.8978" fill="white" transform="translate(0.883789 0.0620117)"/>
</clipPath>
</defs>
</svg>
