<svg width="94" height="94" viewBox="0 0 94 94" fill="none" xmlns="http://www.w3.org/2000/svg">
<path d="M46.9999 91.492C71.5722 91.492 91.492 71.5722 91.492 46.9999C91.492 22.4276 71.5722 2.50781 46.9999 2.50781C22.4276 2.50781 2.50781 22.4276 2.50781 46.9999C2.50781 71.5722 22.4276 91.492 46.9999 91.492Z" stroke="white" stroke-width="2" stroke-linecap="round" stroke-linejoin="round"/>
<path d="M71.4831 39.025H54.973V22.5167C54.973 21.588 54.2229 20.8379 53.2941 20.8379H40.7019C39.7751 20.8379 39.0231 21.588 39.0231 22.5167V39.025H22.5148C21.5861 39.025 20.8359 39.777 20.8359 40.7039V53.2961C20.8359 54.2229 21.5861 54.9749 22.5148 54.9749H39.0231V71.4851C39.0231 72.4119 39.7751 73.1639 40.7019 73.1639H53.2941C54.221 73.1639 54.973 72.4138 54.973 71.4851V54.9749H71.4831C72.41 54.9749 73.162 54.2248 73.162 53.2961V40.7039C73.162 39.777 72.4119 39.025 71.4831 39.025Z" stroke="#34CBB4" stroke-width="2" stroke-linecap="round" stroke-linejoin="round"/>
</svg>
