<svg width="94" height="94" viewBox="0 0 94 94" fill="none" xmlns="http://www.w3.org/2000/svg">
<path d="M46.9999 91.492C71.5722 91.492 91.492 71.5722 91.492 46.9999C91.492 22.4276 71.5722 2.50781 46.9999 2.50781C22.4276 2.50781 2.50781 22.4276 2.50781 46.9999C2.50781 71.5722 22.4276 91.492 46.9999 91.492Z" stroke="white" stroke-width="2" stroke-linecap="round" stroke-linejoin="round"/>
<path d="M68.6067 22.7582C65.5975 19.7396 61.6102 18.0502 57.3791 18.0011C54.3968 17.9663 51.4816 18.7495 48.9374 20.2657C47.8441 20.9168 46.4864 20.9168 45.3932 20.2657C42.8488 18.7495 39.9315 17.9682 36.9513 18.001C32.7201 18.0502 28.7328 19.7396 25.7235 22.7581C22.7144 25.7765 21.037 29.7692 21.0006 34.0005C20.97 37.5522 22.0714 40.9307 24.1856 43.7709C26.3173 46.6345 27.7718 50.0902 28.3921 53.7645C29.3336 59.3419 30.6712 64.4612 32.1585 68.1795C34.0955 73.0217 36.1848 75.3756 38.5456 75.3756C39.429 75.3756 40.2508 75.0179 40.9222 74.3411C43.2037 72.0413 44.0934 65.9855 43.9931 53.4386C43.9723 50.8481 45.1278 48.4292 47.1651 46.7968C49.2021 48.4284 50.3579 50.8476 50.3371 53.4386C50.2367 65.9854 51.1265 72.0412 53.4081 74.3411C54.0794 75.0179 54.9013 75.3756 55.7847 75.3756C58.1455 75.3756 60.2349 73.0217 62.1716 68.1796C63.6589 64.4612 64.9965 59.3419 65.9379 53.7646C66.5582 50.0904 68.0128 46.6347 70.1444 43.7711C72.2586 40.9309 73.36 37.5523 73.3294 34.0007C73.2931 29.7694 71.6158 25.7767 68.6067 22.7582ZM68.3108 42.4061C65.9641 45.5584 64.3642 49.3546 63.6841 53.3839C61.5236 66.1834 58.0017 73.0897 55.7847 73.0897C55.5993 73.0897 55.3461 73.0489 55.0308 72.7312C52.4893 70.1692 52.5864 58.0275 52.623 53.4569C52.6495 50.1487 51.1708 47.063 48.5672 44.9913L48.5287 44.9606C48.1273 44.6388 47.6462 44.478 47.1651 44.478C46.684 44.478 46.2028 44.639 45.8012 44.9607L45.764 44.9904C43.1595 47.0627 41.6808 50.1487 41.7073 53.4569C41.7437 58.0277 41.8407 70.1693 39.2992 72.7312C38.9839 73.0491 38.7308 73.0898 38.5454 73.0898C36.3286 73.0898 32.8068 66.1835 30.646 53.3842C29.9658 49.3548 28.366 45.5588 26.0193 42.4063C24.2052 39.9692 23.2602 37.0695 23.2865 34.0204C23.351 26.5347 29.493 20.374 36.9776 20.2872C39.5343 20.2579 42.0401 20.9292 44.2228 22.2298C46.0376 23.3109 48.2922 23.311 50.1072 22.2298C52.2897 20.9292 54.7967 20.2558 57.3524 20.2872C64.8373 20.374 70.9793 26.5348 71.0437 34.0207C71.07 37.0693 70.1249 39.9691 68.3108 42.4061Z" fill="#34CBB4"/>
<path d="M33.2134 23.6737C32.9293 23.1098 32.2419 22.8829 31.6783 23.1671C27.6038 25.2199 25.0482 29.3118 25.0093 33.846C25.0039 34.4772 25.5111 34.9933 26.1425 34.9987C26.1459 34.9987 26.1492 34.9987 26.1526 34.9987C26.7791 34.9987 27.2898 34.4934 27.2952 33.8658C27.3268 30.1917 29.4005 26.8744 32.7068 25.2087C33.2706 24.9246 33.4973 24.2373 33.2134 23.6737Z" fill="#34CBB4"/>
<path d="M36.9317 21.8867C36.5711 21.891 36.2067 21.9116 35.8484 21.9482C35.2205 22.0121 34.7633 22.5731 34.8273 23.201C34.8872 23.7897 35.3838 24.2282 35.9629 24.2282C36.0017 24.2282 36.0408 24.2263 36.0802 24.2222C36.3704 24.1926 36.6658 24.1759 36.9583 24.1725C37.5895 24.1652 38.0951 23.6473 38.0879 23.0162C38.0806 22.3851 37.5639 21.8809 36.9317 21.8867Z" fill="#34CBB4"/>
</svg>
