<svg width="142" height="33" viewBox="0 0 142 33" fill="none" xmlns="http://www.w3.org/2000/svg">
<g clip-path="url(#clip0_287_368)">
<path fill-rule="evenodd" clip-rule="evenodd" d="M1.5751 1.18041C1.20525 1.56993 0.992676 2.16945 0.992676 2.9485V30.6586C0.992676 31.4377 1.20525 32.0372 1.58892 32.4132L1.68916 32.4961L17.5337 16.9695V16.6207L1.67533 1.09743L1.5751 1.18041Z" fill="url(#paint0_linear_287_368)"/>
<path fill-rule="evenodd" clip-rule="evenodd" d="M22.805 22.1654L17.52 16.9848V16.6223L22.8067 11.4417L22.9208 11.5112L29.1736 14.9931C30.9641 15.9822 30.9641 17.6114 29.1736 18.614L22.9208 22.096C22.9191 22.096 22.805 22.1654 22.805 22.1654Z" fill="url(#paint1_linear_287_368)"/>
<path fill-rule="evenodd" clip-rule="evenodd" d="M22.9191 22.096L17.52 16.8036L1.5752 32.4284C2.15762 33.0415 3.13753 33.1109 4.23324 32.5114L22.9191 22.096Z" fill="url(#paint2_linear_287_368)"/>
<path fill-rule="evenodd" clip-rule="evenodd" d="M22.9191 11.5129L4.23324 1.11097C3.13926 0.497899 2.15762 0.580884 1.5752 1.19395L17.5183 16.8036L22.9191 11.5129Z" fill="url(#paint3_linear_287_368)"/>
<path opacity="0.2" fill-rule="evenodd" clip-rule="evenodd" d="M22.8049 21.9842L4.24691 32.3166C3.20996 32.9009 2.28535 32.8603 1.68911 32.3302L1.58887 32.4284L1.68911 32.5114C2.28535 33.0398 3.20996 33.0821 4.24691 32.4978L22.9327 22.096L22.8049 21.9842Z" fill="black"/>
<path opacity="0.12" fill-rule="evenodd" clip-rule="evenodd" d="M29.1717 18.4328L22.791 21.9842L22.9051 22.096L29.1579 18.614C30.0531 18.1127 30.4938 17.459 30.4938 16.8036C30.4368 17.4031 29.9823 17.9738 29.1717 18.4328Z" fill="black"/>
<path opacity="0.25" fill-rule="evenodd" clip-rule="evenodd" d="M4.23314 1.29218L29.1718 15.176C29.9823 15.6214 30.4369 16.2057 30.5077 16.8052C30.5077 16.1515 30.067 15.4961 29.1718 14.9948L4.23314 1.11097C2.44268 0.108381 0.992676 0.943309 0.992676 2.94849V3.1297C0.992676 1.12452 2.44268 0.303141 4.23314 1.29218Z" fill="white"/>
<path fill-rule="evenodd" clip-rule="evenodd" d="M36.5945 20.518C36.5945 16.0792 40.4019 12.4651 44.9316 12.4651C47.4358 12.4651 49.2177 13.4288 50.5622 14.6837L48.9792 16.235C48.0182 15.351 46.7151 14.6651 44.9299 14.6651C41.622 14.6651 39.0365 17.2748 39.0365 20.5163C39.0365 23.7578 41.622 26.371 44.9281 26.371C47.0729 26.371 48.293 25.5276 49.0759 24.7587C49.7171 24.1304 50.1371 23.2277 50.2995 21.9897H44.9316V19.7949H52.4875C52.567 20.1878 52.6085 20.6586 52.6085 21.1684C52.6085 22.8162 52.147 24.8603 50.6625 26.3151C49.2177 27.7885 47.3753 28.5743 44.9299 28.5743C40.3984 28.5743 36.5911 24.9636 36.5911 20.5214L36.5945 20.518ZM58.7161 18.2012C55.7902 18.2012 53.4017 20.3825 53.4017 23.3852C53.4017 26.3727 55.7885 28.5692 58.7161 28.5692C61.6438 28.5692 64.027 26.3693 64.027 23.3835C64.027 20.3808 61.642 18.1995 58.7161 18.2012ZM58.7161 26.5302C57.114 26.5302 55.7297 25.2346 55.7297 23.3869C55.7297 21.5206 57.1123 20.2437 58.7161 20.2437C60.3182 20.2437 61.7008 21.5189 61.7008 23.3869C61.7008 25.2329 60.3199 26.5302 58.7161 26.5302ZM70.304 18.2012C67.3781 18.2012 64.9931 20.3825 64.9931 23.3852C64.9931 26.3727 67.3781 28.5692 70.304 28.5692C73.2299 28.5692 75.6149 26.3693 75.6149 23.3835C75.6149 20.3808 73.2317 18.1995 70.304 18.2012ZM70.304 26.5302C68.7019 26.5302 67.3176 25.2346 67.3176 23.3869C67.3176 21.5206 68.7002 20.2437 70.304 20.2437C71.9061 20.2437 73.2904 21.5189 73.2904 23.3869C73.2904 25.2329 71.9061 26.5302 70.304 26.5302ZM84.5258 18.5162V19.3596H84.4463C83.9261 18.7482 82.9237 18.1995 81.6621 18.1995C79.0161 18.1995 76.5879 20.4791 76.5879 23.4072C76.5879 26.3117 79.0144 28.5726 81.6621 28.5726C82.9237 28.5726 83.9261 28.0239 84.4463 27.3956H84.5258V28.1408C84.5258 30.1239 83.4439 31.1858 81.7001 31.1858C80.276 31.1858 79.3946 30.1832 79.0334 29.3415L77.0079 30.1663C77.5886 31.5397 79.1336 33.2299 81.6984 33.2299C84.4221 33.2299 86.7276 31.6566 86.7276 27.8275V18.5145L84.5258 18.5162ZM81.8608 26.5302C80.2587 26.5302 78.9124 25.2126 78.9124 23.4072C78.9124 21.5816 80.257 20.2454 81.8608 20.2454C83.4439 20.2454 84.6865 21.5799 84.6865 23.4072C84.6882 25.2126 83.4456 26.5302 81.8608 26.5302ZM88.3331 13.0155H90.6593V28.2576H88.3331V13.0155ZM97.0349 26.5302C95.8527 26.5302 95.0093 25.9984 94.4719 24.9602L101.547 22.0897L101.304 21.5003C100.865 20.3436 99.5201 18.2012 96.7739 18.2012C94.0484 18.2012 91.7827 20.3029 91.7827 23.3869C91.7827 26.2914 94.0277 28.5709 97.0349 28.5709C99.4613 28.5709 100.865 27.1195 101.445 26.2728L99.6411 25.0957C99.0379 25.9611 98.2153 26.5319 97.0349 26.5302ZM96.8534 20.2047C97.7746 20.2047 98.5557 20.6569 98.8167 21.3038L94.0847 23.2294C94.026 21.2259 95.6695 20.2047 96.8534 20.2047Z" fill="black"/>
<path fill-rule="evenodd" clip-rule="evenodd" d="M111.754 13.0155H106.193V28.2576H108.514V22.4843H111.756C114.329 22.4843 116.86 20.6586 116.86 17.7491C116.86 14.8446 114.331 13.0172 111.76 13.0172L111.754 13.0155ZM111.815 20.3622H108.514V15.1359H111.815C113.55 15.1359 114.539 16.5466 114.539 17.7491C114.539 18.9312 113.55 20.3622 111.815 20.3622ZM120.46 28.2576V13.0155H118.139V28.2576H120.46ZM130.886 28.2305V22.3877C130.886 19.6814 128.823 18.1724 126.159 18.1724C124.481 18.1724 122.741 18.899 122.02 20.5062L124.08 21.3479C124.521 20.5062 125.34 20.2301 126.203 20.2301C127.402 20.2301 128.622 20.9363 128.641 22.193V22.3505C128.221 22.1151 127.322 21.7611 126.22 21.7611C123.999 21.7611 121.738 22.9568 121.738 25.1923C121.738 27.233 123.56 28.5455 125.601 28.5455C127.163 28.5455 128.022 27.8596 128.562 27.0569H128.641V28.2339H130.884L130.886 28.2305ZM125.883 26.5268C125.122 26.5268 124.061 26.1542 124.061 25.2346C124.061 24.0576 125.383 23.6037 126.524 23.6037C127.545 23.6037 128.024 23.8188 128.646 24.1135C128.468 25.4819 127.288 26.5099 125.883 26.5268ZM139.049 18.5061L136.387 25.1127H136.308L133.546 18.5061H131.045L135.186 27.7428L132.823 32.8794H135.245L141.627 18.5061H139.049Z" fill="black"/>
</g>
<defs>
<linearGradient id="paint0_linear_287_368" x1="16.111" y1="2.65064" x2="-9.19989" y2="9.53286" gradientUnits="userSpaceOnUse">
<stop stop-color="#00A0FF"/>
<stop offset="0.007" stop-color="#00A1FF"/>
<stop offset="0.26" stop-color="#00BEFF"/>
<stop offset="0.512" stop-color="#00D2FF"/>
<stop offset="0.76" stop-color="#00DFFF"/>
<stop offset="1" stop-color="#00E3FF"/>
</linearGradient>
<linearGradient id="paint1_linear_287_368" x1="31.5035" y1="16.8043" x2="0.557616" y2="16.8043" gradientUnits="userSpaceOnUse">
<stop stop-color="#FFE000"/>
<stop offset="0.409" stop-color="#FFBD00"/>
<stop offset="0.775" stop-color="#FFA500"/>
<stop offset="1" stop-color="#FF9C00"/>
</linearGradient>
<linearGradient id="paint2_linear_287_368" x1="19.9832" y1="19.6827" x2="0.212463" y2="53.6396" gradientUnits="userSpaceOnUse">
<stop stop-color="#FF3A44"/>
<stop offset="1" stop-color="#C31162"/>
</linearGradient>
<linearGradient id="paint3_linear_287_368" x1="-2.43851" y1="-8.03732" x2="6.38168" y2="7.12813" gradientUnits="userSpaceOnUse">
<stop stop-color="#32A071"/>
<stop offset="0.069" stop-color="#2DA771"/>
<stop offset="0.476" stop-color="#15CF74"/>
<stop offset="0.801" stop-color="#06E775"/>
<stop offset="1" stop-color="#00F076"/>
</linearGradient>
<clipPath id="clip0_287_368">
<rect width="140.775" height="32.2481" fill="white" transform="translate(0.922363 0.682175)"/>
</clipPath>
</defs>
</svg>
