<svg width="94" height="94" viewBox="0 0 94 94" fill="none" xmlns="http://www.w3.org/2000/svg">
<g clip-path="url(#clip0_70_191)">
<path d="M58.8817 19.5503C60.9046 20.4113 62.8071 21.5111 64.5499 22.8121C71.2464 27.8148 75.5892 35.8029 75.5892 44.7855C75.5892 59.8989 63.2884 72.1997 48.1751 72.1997C36.1487 72.1997 25.9046 64.0405 22.2217 53.2474M30.9975 53.2474C34.0431 59.6808 40.5987 63.7754 48.1751 63.7754C58.6429 63.7754 67.1668 55.259 67.1668 44.7855C67.1668 35.8837 61.0136 28.3938 52.7322 26.3465" stroke="white" stroke-width="2"/>
<path d="M48.7522 60.1577V82.447" stroke="white" stroke-width="2" stroke-linecap="round" stroke-linejoin="round"/>
<path d="M39.2073 53.2847H14.1018" stroke="#34CBB4" stroke-width="2" stroke-linecap="round" stroke-linejoin="round"/>
<path d="M26.5906 91.4149H70.9153L68.0333 83.7295H29.4726L26.5906 91.4149Z" stroke="white" stroke-width="2" stroke-linecap="round" stroke-linejoin="round"/>
<path d="M44.101 33.5429L34.3193 23.7612" stroke="#34CBB4" stroke-width="2" stroke-linecap="round" stroke-linejoin="round"/>
<path d="M65.839 13.2624L55.332 2.75244L29.2199 28.8571L39.727 39.3671L65.839 13.2624Z" stroke="white" stroke-width="2" stroke-linecap="round" stroke-linejoin="round"/>
<path d="M68.0318 6.71408L61.8743 0.555664L57.4522 4.97708L63.6098 11.1355L68.0318 6.71408Z" stroke="white" stroke-width="2" stroke-linecap="round" stroke-linejoin="round"/>
</g>
<defs>
<clipPath id="clip0_70_191">
<rect width="94" height="94" fill="white"/>
</clipPath>
</defs>
</svg>
