<svg width="228" height="337" viewBox="0 0 228 337" fill="none" xmlns="http://www.w3.org/2000/svg">
<path fill-rule="evenodd" clip-rule="evenodd" d="M22.0454 336.954C58.1788 338.974 58.8879 274.102 89.504 254.835C120.597 235.267 168.48 254.701 194.279 228.564C220.694 201.803 238.385 154.855 221.176 121.44C202.64 85.4489 147.409 92.8758 113.209 71.1535C91.9749 57.6662 82.9607 30.6402 60.4697 19.3652C35.2784 6.73638 5.11445 -6.87052 -20.9237 3.91076C-47.0132 14.7133 -51.0855 49.5813 -67.6578 72.4173C-82.3937 92.723 -111.057 105.646 -112.902 130.654C-114.751 155.712 -89.9124 173.669 -76.7072 195.057C-65.3325 213.48 -53.0957 229.781 -40.7268 247.554C-19.4972 278.058 -15.0995 334.877 22.0454 336.954Z" fill="#E8F0FB"/>
</svg>
