<svg width="94" height="94" viewBox="0 0 94 94" fill="none" xmlns="http://www.w3.org/2000/svg"><path d="M48.0019 91.1992c3.7234 0 6.7417-3.0184 6.7417-6.7417 0-3.7233-3.0183-6.7417-6.7417-6.7417-3.7233 0-6.7416 3.0184-6.7416 6.7417 0 3.7233 3.0183 6.7417 6.7416 6.7417Z" stroke="#fff" stroke-width="2" stroke-linecap="round" stroke-linejoin="round"/><path d="M48.0038 87.5536c1.7101 0 3.0964-1.3863 3.0964-3.0964s-1.3863-3.0964-3.0964-3.0964c-1.71 0-3.0963 1.3863-3.0963 3.0964s1.3863 3.0964 3.0963 3.0964Z" stroke="#34CBB4" stroke-width="2" stroke-linecap="round" stroke-linejoin="round"/><path d="m42.4353 37.9443 5.5667 8.0859 5.5629-8.0859" stroke="#fff" stroke-width="2" stroke-linecap="round" stroke-linejoin="round"/><path d="M47.9136 45.9399v5.7397c0 2.6151-2.1188 4.7319-4.7376 4.7319H29.8355s-4.418-.359-4.418 4.2827c0 4.8278 4.418 4.277 4.418 4.277h34.6446s4.0984-.1749 4.0984 4.2864c0 4.4612-2.9083 4.5515-4.183 4.5515H52.0101S48 73.8598 48 77.5051M37.0754 4.2339c-3.085 0-4.3691 2.0943-3.5475 5.5855l4.3691 22.1539c1.2295 3.4028 2.5042 5.5892 5.5855 5.5892h9.0409c3.0888 0 4.4951-2.459 5.593-5.5892l4.3691-22.154c.9983-3.491-.1034-5.5854-3.1903-5.5854" stroke="#fff" stroke-width="2" stroke-linecap="round" stroke-linejoin="round"/><path d="M55.0293 4.9973c0 .421.3459.7632.767.7632h2.1884c.4267 0 .767-.3421.767-.7632v-1.427c0-.421-.3422-.7651-.767-.7651h-2.1865c-.423 0-.767.344-.767.7651l-.0019 1.427ZM37.7878 4.9973c0 .421.3422.7632.7633.7632h2.1921c.4192 0 .7633-.3421.7633-.7632v-1.427c0-.421-.3459-.7651-.7633-.7651h-2.1921c-.423 0-.7633.344-.7633.7651v1.427Z" stroke="#34CBB4" stroke-width="2" stroke-linecap="round" stroke-linejoin="round"/></svg>